PathFileType	4	(X/Y/Z)	Kaydara																																																																																																																									
DataRate	CameraRate	NumFrames	NumMarkers	Units	OrigDataRate	OrigDataStartFrame	OrigNumFrames																																																																																																																					
30	30	5	41	mm	30	136	141																																																																																																																					
Frame#	Time	SALE_LFHD			SALE_RFHD			SALE_LBHD			SALE_RBHD			SALE_LFTShould			SALE_RFTShould			SALE_LRRShould			SALE_RRRShould			SALE_T10			SALE_STRN			SALE_TRUN			SALE_LSHO			SALE_LUPA			SALE_LELB			SALE_LFRM			SALE_LWRA			SALE_LWRB			SALE_LFIN			SALE_RSHO			SALE_RUPA			SALE_RELB			SALE_RFRM			SALE_RWRB			SALE_RFIN			SALE_LFWT			SALE_RFWT			SALE_LBWT			SALE_RBWT			SALE_LTHI			SALE_LKNE			SALE_RWRA			SALE_LSHN			SALE_LANK			SALE_LHEE			SALE_LTOE			SALE_RTHI			SALE_RKNE			SALE_RSHN			SALE_RANK			SALE_RHEE			SALE_RTOE		
		X1	Y1	Z1	X2	Y2	Z2	X3	Y3	Z3	X4	Y4	Z4	X5	Y5	Z5	X6	Y6	Z6	X7	Y7	Z7	X8	Y8	Z8	X9	Y9	Z9	X10	Y10	Z10	X11	Y11	Z11	X12	Y12	Z12	X13	Y13	Z13	X14	Y14	Z14	X15	Y15	Z15	X16	Y16	Z16	X17	Y17	Z17	X18	Y18	Z18	X19	Y19	Z19	X20	Y20	Z20	X21	Y21	Z21	X22	Y22	Z22	X23	Y23	Z23	X24	Y24	Z24	X25	Y25	Z25	X26	Y26	Z26	X27	Y27	Z27	X28	Y28	Z28	X29	Y29	Z29	X30	Y30	Z30	X31	Y31	Z31	X32	Y32	Z32	X33	Y33	Z33	X34	Y34	Z34	X35	Y35	Z35	X36	Y36	Z36	X37	Y37	Z37	X38	Y38	Z38	X39	Y39	Z39	X40	Y40	Z40	X41	Y41	Z41
																																																																																																																												
106	4.5	164.1361	1628.22388	884.77493	31.48552	1628.71948	893.63297	151.10904	1603.41736	753.1752	24.56414	1602.62909	767.60727	170.64653	1368.10272	870.5883	31.34997	1361.04996	884.94064	150.43492	1417.15881	752.77206	4.38732	1418.23288	776.05652	72.74327	1260.66818	704.72115	103.71888	1295.91156	931.41235	107.72792	1210.7682	975.02892	274.54325	1395.02777	784.17305	320.02132	1182.29675	769.20021	307.97903	1072.66212	763.05733	348.08472	977.71225	825.61745	312.70508	883.68622	956.84616	367.19372	855.77965	909.83315	380.19768	843.47801	971.08429	-80.9989	1387.83142	830.10544	-122.25709	1162.407	766.30234	-153.54563	1061.8074	808.5247	-153.12181	950.99289	790.90103	-179.7366	813.00018	826.70189	-186.39229	767.94952	876.72874	223.22788	941.01128	867.57339	-52.61079	953.76266	893.72635	150.87555	990.0444	703.82835	-21.86921	1007.94022	717.80441	184.13015	616.41396	828.55453	200.19182	488.84087	970.54169	-128.17595	814.97688	882.26425	188.69425	326.32793	836.88301	178.81348	238.53161	666.65878	134.86038	249.48196	587.57416	159.41729	107.65407	720.02213	-72.58235	690.64247	761.54556	-28.39375	540.99895	875.98129	30.91286	344.71561	862.79129	-9.74157	92.49814	802.23427	13.921	48.66389	918.41583	35.02904	35.24296	727.28867
107	4.533	164.1379	1630.40558	941.81648	31.63236	1630.31296	951.13037	150.99498	1607.117	809.81621	24.24235	1605.48508	825.01312	172.40524	1373.3107	923.61427	33.70394	1366.60873	940.11513	148.89091	1420.35675	807.13821	4.04101	1421.81076	831.78436	69.36168	1264.41132	760.32501	105.88264	1302.061	986.13152	110.23954	1216.31424	1028.83354	273.46865	1398.62381	835.20462	318.35535	1187.15126	814.85481	305.03584	1077.8199	805.49408	344.655	977.00417	856.55144	307.48459	866.15356	974.22882	362.21943	844.8053	923.8147	372.36637	820.78552	982.94098	-79.88208	1393.48297	887.75345	-122.62293	1166.89812	832.85385	-152.95597	1067.70248	882.22969	-151.18271	953.56941	876.24039	-173.88477	819.99962	929.01283	-179.07335	783.4008	985.60875	220.53686	947.22397	923.16582	-58.11656	952.30949	942.01569	151.75291	993.42598	757.93221	-20.30996	1008.79219	769.29497	198.15102	625.15541	902.3085	199.50603	511.57856	1057.63649	-120.61806	829.33029	982.54395	185.55984	323.31932	954.60472	172.61055	202.9154	804.64737	125.47246	195.38719	725.06554	156.04733	91.63212	887.46109	-71.22882	692.50725	795.56831	-29.68598	537.00329	898.55232	28.84399	342.78095	873.15712	-9.98943	93.09519	802.86591	13.60137	48.29077	918.7101	35.18486	36.73231	726.94771
108	4.567	165.14757	1627.18094	998.48488	32.63133	1627.48306	1008.02307	151.93359	1604.41406	865.78499	24.88842	1602.95502	881.89804	172.63231	1372.25616	977.5132	35.00968	1366.70853	994.10316	147.67156	1417.39044	861.68442	3.20363	1419.44748	886.91406	66.92653	1262.1701	815.18303	106.2219	1301.71982	1041.66641	110.30049	1214.98436	1082.75146	272.35455	1395.49133	887.30827	316.42879	1185.14702	860.5706	301.98246	1076.4196	848.08037	342.05212	971.78101	886.29463	304.20797	846.30127	987.96814	358.7817	831.54526	935.15701	366.12255	796.50146	990.30716	-79.73476	1392.43454	944.2141	-124.61475	1164.20761	898.54568	-153.30967	1067.07039	953.45543	-149.3103	951.42807	960.99464	-166.90342	824.72542	1031.53702	-171.10762	797.07909	1092.69066	218.12832	948.24364	981.1451	-61.03405	945.69435	990.80818	154.24841	992.24403	813.32962	-18.22934	1004.06929	819.61838	211.62556	629.29428	972.0076	197.96238	523.14693	1131.8969	-113.85126	843.27919	1082.74345	184.56245	314.33823	1070.04074	169.79689	161.29711	953.11409	121.62956	133.9902	878.50731	154.2735	77.32132	1061.56853	-67.13664	693.68271	829.89883	-29.93916	532.58167	924.8027	29.91234	339.72603	889.33609	-8.47868	94.7062	805.9481	13.84736	48.08947	919.9118	36.76011	40.01758	728.14636
109	4.6	166.933	1619.26025	1054.34311	34.47913	1621.04279	1064.19907	153.14957	1595.65765	921.90018	26.15672	1595.63965	938.3091	171.94233	1363.39554	1032.50999	33.77133	1358.92548	1048.97804	146.91068	1409.05914	916.87027	2.0699	1411.48407	942.00226	65.52133	1254.5034	869.45381	104.75282	1293.07236	1096.60606	108.41663	1206.12587	1137.26341	271.24405	1386.306	941.67618	313.79211	1176.3298	907.85431	298.10583	1068.27988	891.66473	338.94268	962.11739	915.14481	302.19654	824.66553	999.38461	354.81724	816.36131	944.0416	362.23259	772.98454	993.62686	-80.90764	1384.65668	999.59641	-127.77217	1153.74008	963.283	-154.9455	1059.55368	1023.73817	-147.82252	944.99916	1044.56772	-159.19561	828.7043	1132.14134	-161.72314	809.05266	1196.4238	216.92078	942.61391	1040.64957	-61.92011	937.87933	1039.16122	158.89737	985.73746	870.18646	-13.53083	996.47926	869.37889	218.24625	625.15961	1034.25743	195.88223	519.29932	1192.86499	-107.44313	856.85471	1179.95361	185.63341	301.77677	1180.48561	171.11647	123.07154	1110.47424	123.81605	77.15196	1044.93874	156.80967	71.83657	1237.33826	-62.59608	692.29584	869.58481	-28.83766	528.16853	957.63039	31.84518	336.66451	910.44914	-5.58506	98.4093	810.07668	14.15287	47.49927	920.93414	41.14247	46.58982	729.84337
110	4.633	169.06082	1608.21686	1109.37714	36.59347	1611.70731	1119.57291	154.64094	1582.51785	977.46407	27.6347	1584.28757	994.14635	170.80774	1350.19653	1088.43323	30.9768	1344.97589	1105.62393	146.49708	1397.77206	972.80182	1.37752	1400.80399	997.24525	65.69721	1243.73772	924.34853	102.47787	1278.80943	1150.62569	105.09045	1192.44911	1192.05231	270.80149	1374.32892	996.94649	310.33216	1164.40048	955.71556	294.05743	1056.23901	937.80693	334.71909	951.0347	944.09973	301.37791	804.04839	1012.3378	348.71773	802.58545	951.98738	360.50343	753.84132	994.33113	-82.10672	1373.69629	1054.22745	-129.56811	1139.48334	1025.11391	-156.04959	1048.66821	1092.10762	-145.73306	937.98813	1124.57298	-151.06383	834.18709	1227.23145	-152.12951	823.42926	1293.73474	216.06956	931.49109	1104.84016	-62.22744	931.80428	1088.27934	168.23545	974.2836	931.0482	-4.24334	989.2038	921.8174	212.3073	609.77947	1086.59241	195.86908	501.23466	1242.82593	-100.96529	871.35246	1269.85329	189.13902	293.1657	1283.60031	177.36685	103.3699	1267.21031	131.59483	42.7388	1214.82025	162.24615	83.52213	1405.49988	-53.48245	691.69136	911.38016	-29.71548	524.98032	992.0269	32.97682	334.28619	935.06943	-1.33183	104.95413	814.51164	14.7212	47.41463	922.2274	47.91165	57.92623	732.61215
